<svg version="1.1" viewBox="0.0 0.0 200.0 100.0" fill="none" stroke="none" stroke-linecap="square" stroke-miterlimit="10" xmlns:xlink="http://www.w3.org/1999/xlink" xmlns="http://www.w3.org/2000/svg"><clipPath id="p.0"><path d="m0 0l200.0 0l0 100.0l-200.0 0l0 -100.0z" clip-rule="nonzero"/></clipPath><g clip-path="url(#p.0)"><path fill="#000000" fill-opacity="0.0" d="m0 0l200.0 0l0 100.0l-200.0 0z" fill-rule="evenodd"/><path fill="#000000" fill-opacity="0.0" d="m0 -0.015748031l200.0 0l0 100.031494l-200.0 0z" fill-rule="evenodd"/><path fill="#000000" d="m20.000061 59.4l0 -35.0l35.0 0l0 5.0l-25.0 0l0 10.000002l20.0 0l0 5.0l-20.0 0l0 10.0l25.0 0l0 5.0l-35.0 0zm39.99997 0l0 -5.0l5.0 0l0 -5.0l5.0 0l0 -5.0l-5.0 0l0 -5.0l-5.0 0l0 -5.0l10.0 0l0 5.0l5.0 0l0 5.0l5.0 0l0 -5.0l5.0 0l0 -5.0l10.0 0l0 5.0l-5.0 0l0 5.0l-5.0 0l0 5.0l5.0 0l0 5.0l5.0 0l0 5.0l-10.0 0l0 -5.0l-5.0 0l0 -5.0l-5.0 0l0 5.0l-5.0 0l0 5.0l-10.0 0zm54.99997 -30.000002l0 -5.0l10.0 0l0 5.0l-10.0 0zm-10.0 30.000002l0 -5.0l10.0 0l0 -15.0l-5.0 0l0 -5.0l15.0 0l0 20.0l10.0 0l0 5.0l-30.0 0zm49.99997 0l0 -20.0l-10.0 0l0 -5.0l10.0 0l0 -10.000002l10.0 0l0 10.000002l10.0 0l0 5.0l-10.0 0l0 20.0l-10.0 0z" fill-rule="nonzero"/></g></svg>