# Blender v3.0.1 OBJ File: 'simpleArena.blend'
# www.blender.org
mtllib simpleArena.mtl
o Arena_Plane
v 0.000000 0.000000 37.500000
v 37.500000 0.000000 0.000000
v 0.000000 0.000000 -37.500000
v -37.500000 0.000000 0.000000
v 37.500000 0.000000 -37.500000
v -37.500000 0.000000 -37.500000
v 37.500000 0.000000 37.500000
v -37.500000 0.000000 37.500000
v 37.500000 0.000000 -18.750000
v 18.750000 0.000000 -37.500000
v -37.500000 0.000000 -18.750000
v -18.750000 0.000000 -37.500000
v 37.500000 0.000000 18.750000
v 18.750000 0.000000 37.500000
v -37.500000 0.000000 18.750000
v -18.750000 0.000000 37.500000
v 28.125000 0.000000 37.500000
v 0.000000 10.000000 0.000000
v 37.500000 0.000000 28.125000
v 0.000000 10.000000 -18.750000
v -9.375000 0.000000 -37.500000
v -37.500000 0.000000 -9.375000
v -18.750000 10.000000 0.000000
v 28.125000 0.000000 -37.500000
v 18.751400 10.000000 -18.751394
v 37.500000 0.000000 -9.375000
v -28.125000 0.000000 37.500000
v -37.500000 0.000000 9.375000
v -18.750000 10.000000 -18.750000
v 18.750000 10.000000 18.750000
v 18.750000 10.000000 0.000000
v 9.375000 0.000000 37.500000
v 0.000000 10.000000 18.750000
v 37.500000 0.000000 9.375000
v -28.125000 0.000000 -37.500000
v -18.821617 10.000000 18.751394
v 18.793528 10.000000 18.709265
v -37.500000 0.000000 -28.125000
v 9.375000 0.000000 -37.500000
v 37.500000 0.000000 -28.125000
v -18.750000 10.000000 18.750000
v -37.500000 0.000000 28.125000
v -9.375000 0.000000 37.500000
v -28.125000 5.000000 0.000000
v 28.125000 5.000000 0.000000
v 0.000000 5.000000 28.125000
v -18.750000 5.000000 -28.125000
v -28.160807 5.000000 28.125698
v 28.146765 5.000000 28.104633
v 28.125000 5.000000 18.750000
v 28.125700 5.000000 -28.125698
v 18.750000 10.000000 9.375000
v 18.771765 10.000000 18.729631
v -28.125000 5.000000 -28.125000
v -28.125000 5.000000 -18.750000
v 28.125700 5.000000 -18.750698
v 18.750000 5.000000 28.125000
v 0.000000 5.000000 -28.125000
v -28.125000 5.000000 18.750000
v -18.750000 5.000000 28.125000
v 18.750700 5.000000 -28.125698
v 9.375700 10.000000 -18.750698
v 9.375000 10.000000 18.750000
v -18.750000 10.000000 9.375000
v -18.785807 10.000000 18.750698
v 18.750700 10.000000 -9.375697
v -18.750000 10.000000 -9.375000
v -9.375000 10.000000 -18.750000
v -9.375000 10.000000 18.750000
v 28.135881 5.000000 23.427317
v -23.455404 5.000000 28.125349
v -28.142904 5.000000 23.437849
v -9.375000 5.000000 -28.125000
v 23.448381 5.000000 28.114817
v 9.375350 5.000000 -28.125349
v -9.375000 5.000000 28.125000
v 28.125000 5.000000 9.375000
v -28.125000 5.000000 9.375000
v 28.125349 5.000000 -9.375349
v 9.375000 5.000000 28.125000
v -28.125000 5.000000 -9.375000
vt 0.406250 0.531250
vt 0.406250 0.500000
vt 0.437500 0.500000
vt 0.437500 0.531250
vt 0.531250 0.406250
vt 0.562500 0.406250
vt 0.562500 0.437500
vt 0.531250 0.437500
vt 0.593750 0.531250
vt 0.593750 0.562500
vt 0.562500 0.562500
vt 0.562500 0.531250
vt 0.406250 0.468750
vt 0.406250 0.437500
vt 0.437500 0.437500
vt 0.437500 0.468750
vt 0.437500 0.625000
vt 0.406250 0.625000
vt 0.437500 0.593750
vt 0.593750 0.468750
vt 0.593750 0.500000
vt 0.562500 0.500000
vt 0.562500 0.468750
vt 0.468750 0.406250
vt 0.500000 0.406250
vt 0.500000 0.437500
vt 0.468750 0.437500
vt 0.531250 0.593750
vt 0.500000 0.593750
vt 0.500000 0.562500
vt 0.531250 0.562500
vt 0.375000 0.625000
vt 0.375000 0.593750
vt 0.375000 0.625000
vt 0.625000 0.562500
vt 0.625000 0.593750
vt 0.593750 0.390625
vt 0.625000 0.375000
vt 0.625000 0.375000
vt 0.593750 0.406250
vt 0.468750 0.593750
vt 0.437500 0.562500
vt 0.468750 0.562500
vt 0.390625 0.406250
vt 0.375000 0.375000
vt 0.375000 0.375000
vt 0.406250 0.406250
vt 0.406250 0.390625
vt 0.437500 0.406250
vt 0.609375 0.406250
vt 0.593750 0.437500
vt 0.625000 0.625000
vt 0.593750 0.625000
vt 0.625000 0.625000
vt 0.375000 0.437500
vt 0.375000 0.406250
vt 0.406250 0.375000
vt 0.437500 0.375000
vt 0.375000 0.375000
vt 0.625000 0.406250
vt 0.625000 0.437500
vt 0.625000 0.375000
vt 0.562500 0.625000
vt 0.593750 0.625000
vt 0.625000 0.625000
vt 0.500000 0.625000
vt 0.468750 0.625000
vt 0.562500 0.375000
vt 0.593750 0.375000
vt 0.593750 0.593750
vt 0.375000 0.593750
vt 0.375000 0.625000
vt 0.375000 0.562500
vt 0.562500 0.593750
vt 0.531250 0.625000
vt 0.468750 0.375000
vt 0.500000 0.375000
vt 0.625000 0.468750
vt 0.625000 0.500000
vt 0.406250 0.593750
vt 0.375000 0.500000
vt 0.375000 0.468750
vt 0.625000 0.531250
vt 0.531250 0.375000
vt 0.406250 0.562500
vt 0.375000 0.531250
vt 0.500000 0.500000
vn -0.4706 0.8824 0.0000
vn -0.2425 0.9701 0.0000
vn 0.0000 0.8824 0.4706
vn 0.0008 0.8825 0.4703
vn 0.1567 0.9578 0.2409
vn 0.0000 0.9701 0.2425
vn 0.4706 0.8823 0.0000
vn 0.1854 0.9650 -0.1854
vn 0.2425 0.9701 0.0000
vn -0.4711 0.8821 -0.0015
vn -0.1518 0.9614 0.2296
vn 0.0000 0.8824 -0.4706
vn 0.4706 0.8824 0.0000
vn 0.0000 0.8823 -0.4706
vn 0.0000 0.9701 -0.2425
vn -0.2495 0.9357 -0.2495
vn 0.0017 0.8829 0.4695
vn 0.2508 0.9357 0.2482
vn 0.2525 0.9356 0.2465
vn 0.2519 0.9357 0.2468
vn -0.1854 0.9650 -0.1854
vn -0.4726 0.8813 -0.0030
vn -0.2508 0.9355 0.2487
vn -0.2520 0.9357 0.2470
vn -0.2507 0.9360 0.2469
vn 0.0000 0.8823 0.4706
vn 0.4718 0.8817 -0.0018
vn 0.4709 0.8822 -0.0009
vn 0.2495 0.9356 -0.2495
vn -0.4708 0.8822 -0.0003
vn -0.4716 0.8818 -0.0006
vn -0.2498 0.9355 0.2498
vn 0.4712 0.8820 -0.0003
vn 0.4707 0.8823 -0.0002
vn 0.2495 0.9357 0.2495
vn 0.0002 0.8824 0.4704
vn 0.0003 0.8827 0.4700
vn 0.0000 1.0000 0.0000
usemtl Color1
s 1
f 81/1/1 44/2/1 23/3/2 67/4/2
f 80/5/3 57/6/4 30/7/5 63/8/6
f 79/9/7 56/10/7 25/11/8 66/12/9
f 78/13/1 59/14/10 41/15/11 64/16/2
f 12/17/12 35/18/12 47/19/12
f 77/20/13 45/21/7 31/22/9 52/23/9
f 76/24/3 46/25/3 33/26/6 69/27/6
f 75/28/14 58/29/14 20/30/15 62/31/15
f 6/32/16 38/33/1 54/34/16
f 9/35/7 40/36/7 56/10/7
f 74/37/17 49/38/18 37/39/19 53/40/20
f 73/41/12 47/19/12 29/42/21 68/43/15
f 72/44/22 48/45/23 36/46/24 65/47/25
f 71/48/26 60/49/26 41/15/11 65/47/25
f 70/50/27 50/51/28 30/7/5 53/40/20
f 5/52/29 24/53/14 51/54/29
f 15/55/30 42/56/31 72/44/22 59/14/10
f 59/14/10 72/44/22 65/47/25 41/15/11
f 27/57/26 16/58/26 60/49/26 71/48/26
f 8/59/32 27/57/26 71/48/26 48/45/23
f 48/45/23 71/48/26 65/47/25 36/46/24
f 19/60/33 13/61/34 50/51/28 70/50/27
f 7/62/35 19/60/33 70/50/27 49/38/18
f 49/38/18 70/50/27 53/40/20 37/39/19
f 24/53/14 10/63/14 61/64/14
f 51/54/29 24/53/14 61/64/14
f 51/54/29 61/64/14 25/65/8
f 42/56/31 8/59/32 48/45/23 72/44/22
f 58/29/14 73/41/12 68/43/15 20/30/15
f 3/66/14 21/67/12 73/41/12 58/29/14
f 21/67/12 12/17/12 47/19/12 73/41/12
f 57/6/4 74/37/17 53/40/20 30/7/5
f 14/68/36 17/69/37 74/37/17 57/6/4
f 17/69/37 7/62/35 49/38/18 74/37/17
f 56/10/7 51/70/29 25/11/8
f 56/10/7 40/36/7 51/70/29
f 40/36/7 5/52/29 51/70/29
f 54/34/16 55/71/1 29/72/21
f 54/34/16 38/33/1 55/71/1
f 38/33/1 11/73/1 55/71/1
f 61/74/14 75/28/14 62/31/15 25/11/8
f 10/63/14 39/75/14 75/28/14 61/74/14
f 39/75/14 3/66/14 58/29/14 75/28/14
f 60/49/26 76/24/3 69/27/6 41/15/11
f 16/58/26 43/76/3 76/24/3 60/49/26
f 43/76/3 1/77/3 46/25/3 76/24/3
f 50/51/28 77/20/13 52/23/9 30/7/5
f 13/61/34 34/78/13 77/20/13 50/51/28
f 34/78/13 2/79/7 45/21/7 77/20/13
f 47/19/12 54/80/16 29/42/21
f 47/19/12 35/18/12 54/80/16
f 35/18/12 6/32/16 54/80/16
f 44/2/1 78/13/1 64/16/2 23/3/2
f 4/81/1 28/82/1 78/13/1 44/2/1
f 28/82/1 15/55/30 59/14/10 78/13/1
f 45/21/7 79/9/7 66/12/9 31/22/9
f 2/79/7 26/83/7 79/9/7 45/21/7
f 26/83/7 9/35/7 56/10/7 79/9/7
f 46/25/3 80/5/3 63/8/6 33/26/6
f 1/77/3 32/84/3 80/5/3 46/25/3
f 32/84/3 14/68/36 57/6/4 80/5/3
f 55/85/1 81/1/1 67/4/2 29/42/21
f 11/73/1 22/86/1 81/1/1 55/85/1
f 22/86/1 4/81/1 44/2/1 81/1/1
usemtl Color2
s off
f 69/27/38 33/26/38 18/87/38 23/3/38 64/16/38
f 33/26/38 63/8/38 52/23/38 31/22/38 18/87/38
f 23/3/38 18/87/38 20/30/38 68/43/38 67/4/38
f 18/87/38 31/22/38 66/12/38 62/31/38 20/30/38
usemtl color3
s 1
f 63/8/6 30/7/5 52/23/9
f 67/4/2 68/43/15 29/42/21
f 62/31/15 66/12/9 25/11/8
f 41/15/11 69/27/6 64/16/2
